<svg id="visual" viewBox="0 0 1920 1080" width="1920" height="1080" xmlns="http://www.w3.org/2000/svg" xmlns:xlink="http://www.w3.org/1999/xlink" version="1.1"><g transform="translate(1951.6713812910007 -108.74487995007087)"><path d="M284.7 -483.6C398.7 -427.3 541.4 -411.1 564.3 -337.2C587.1 -263.3 490.1 -131.7 472.4 -10.2C454.8 111.3 516.7 222.7 523 347.1C529.3 471.5 480.2 609 383.8 710.8C287.3 812.7 143.7 878.8 42.3 805.6C-59.1 732.3 -118.1 519.6 -206.8 413.3C-295.4 306.9 -413.6 307 -502.5 255.8C-591.5 204.7 -651.2 102.3 -624.8 15.3C-598.4 -71.8 -485.8 -143.7 -398.5 -197.6C-311.2 -251.6 -249.1 -287.8 -186.9 -374C-124.7 -460.3 -62.3 -596.6 11.5 -616.5C85.3 -636.5 170.7 -539.9 284.7 -483.6" fill="#59b256"></path></g></svg>